<svg version="1.1" baseProfile="full" width="346" height="472" viewbox="0 0 346 472" xmlns="http://www.w3.org/2000/svg" xmlns:xlink="http://www.w3.org/1999/xlink" xmlns:ev="http://www.w3.org/2001/xml-events" style="font-weight:bold; font-size:12pt; font-family:'Calibri', Helvetica, sans-serif;;stroke-width:3;stroke-linejoin:round;stroke-linecap:round">
  <title >nomnoml</title>
  <desc >[UTILISATEUR|id;pseudo;mdp;mail]
[COMPTE|id;nom;description;id_proprietaire]
[TRANSACTION|id;date_heure;montant;description;id_cat;id_compte;id_utilisateur]
[CATEGORIE|id_cat;nom;description]



[UTILISATEUR]n---n[COMPTE]
[TRANSACTION]1---n[COMPTE]
[TRANSACTION]1---n[CATEGORIE]
[UTILISATEUR]n---1[TRANSACTION]
</desc>
  <text x="130.5" y="127.4" style="fill: #33322E;font-weight:normal;">n</text>
  <text x="60.9" y="344.5" style="fill: #33322E;font-weight:normal;">n</text>
  <path d="M122.5 107.4 L73 140.5 L73 236.5 L73 236.5 L73 332.5 L73 332.5 L78.4 352.5 L78.4 352.5 " style="stroke:#33322E;fill:none;stroke-dasharray:6 6;"></path>
  <text x="189.8" y="332.5" style="fill: #33322E;font-weight:normal;">1</text>
  <text x="126.5" y="344.5" style="fill: #33322E;font-weight:normal;">n</text>
  <path d="M181.8 312.5 L163 332.5 L144 352.5 L144 352.5 " style="stroke:#33322E;fill:none;stroke-dasharray:6 6;"></path>
  <text x="251.3" y="332.5" style="fill: #33322E;font-weight:normal;">1</text>
  <text x="281" y="352" style="fill: #33322E;font-weight:normal;">n</text>
  <path d="M268.8 312.5 L273 332.5 L273 360 L273 360 " style="stroke:#33322E;fill:none;stroke-dasharray:6 6;"></path>
  <text x="216.5" y="140.5" style="fill: #33322E;font-weight:normal;">n</text>
  <text x="261" y="152.5" style="fill: #33322E;font-weight:normal;">1</text>
  <path d="M234 120.5 L253 140.5 L253 160.5 L253 160.5 " style="stroke:#33322E;fill:none;stroke-dasharray:6 6;"></path>
  <rect x="122.5" y="13.5" height="107" width="121" style="stroke:#33322E;fill:#eee8d5;stroke-dasharray:none;"></rect>
  <text x="183" y="35" style="fill: #33322E;text-anchor: middle;">UTILISATEUR</text>
  <path d="M122.5 44.5 L243.5 44.5" style="stroke:#33322E;fill:none;stroke-dasharray:none;"></path>
  <text x="130.5" y="66" style="fill: #33322E;font-weight:normal;">id</text>
  <text x="130.5" y="81" style="fill: #33322E;font-weight:normal;">pseudo</text>
  <text x="130.5" y="96" style="fill: #33322E;font-weight:normal;">mdp</text>
  <text x="130.5" y="111" style="fill: #33322E;font-weight:normal;">mail</text>
  <rect x="13.5" y="352.5" height="107" width="159" style="stroke:#33322E;fill:#eee8d5;stroke-dasharray:none;"></rect>
  <text x="93" y="374" style="fill: #33322E;text-anchor: middle;">COMPTE</text>
  <path d="M13.5 383.5 L172.5 383.5" style="stroke:#33322E;fill:none;stroke-dasharray:none;"></path>
  <text x="21.5" y="405" style="fill: #33322E;font-weight:normal;">id</text>
  <text x="21.5" y="420" style="fill: #33322E;font-weight:normal;">nom</text>
  <text x="21.5" y="435" style="fill: #33322E;font-weight:normal;">description</text>
  <text x="21.5" y="450" style="fill: #33322E;font-weight:normal;">id_proprietaire</text>
  <rect x="178.5" y="160.5" height="152" width="149" style="stroke:#33322E;fill:#eee8d5;stroke-dasharray:none;"></rect>
  <text x="253" y="182" style="fill: #33322E;text-anchor: middle;">TRANSACTION</text>
  <path d="M178.5 191.5 L327.5 191.5" style="stroke:#33322E;fill:none;stroke-dasharray:none;"></path>
  <text x="186.5" y="213" style="fill: #33322E;font-weight:normal;">id</text>
  <text x="186.5" y="228" style="fill: #33322E;font-weight:normal;">date_heure</text>
  <text x="186.5" y="243" style="fill: #33322E;font-weight:normal;">montant</text>
  <text x="186.5" y="258" style="fill: #33322E;font-weight:normal;">description</text>
  <text x="186.5" y="273" style="fill: #33322E;font-weight:normal;">id_cat</text>
  <text x="186.5" y="288" style="fill: #33322E;font-weight:normal;">id_compte</text>
  <text x="186.5" y="303" style="fill: #33322E;font-weight:normal;">id_utilisateur</text>
  <rect x="212.5" y="360.5" height="92" width="121" style="stroke:#33322E;fill:#eee8d5;stroke-dasharray:none;"></rect>
  <text x="273" y="382" style="fill: #33322E;text-anchor: middle;">CATEGORIE</text>
  <path d="M212.5 391.5 L333.5 391.5" style="stroke:#33322E;fill:none;stroke-dasharray:none;"></path>
  <text x="220.5" y="413" style="fill: #33322E;font-weight:normal;">id_cat</text>
  <text x="220.5" y="428" style="fill: #33322E;font-weight:normal;">nom</text>
  <text x="220.5" y="443" style="fill: #33322E;font-weight:normal;">description</text>
</svg>